HIERARCHY
ROOT hip
{
	OFFSET 0.000000 0.000000 0.000000 
	CHANNELS 6 Xposition Yposition Zposition Xrotation Zrotation Yrotation
	JOINT abdomen
	{
		OFFSET 0.000000 3.402643 0.000000 
		CHANNELS 3 Xrotation Zrotation Yrotation
		JOINT chest
		{
			OFFSET 0.000000 8.438565 -0.680529 
			CHANNELS 3 Xrotation Zrotation Yrotation
			JOINT neck
			{
				OFFSET 0.000000 10.207942 -0.272212 
				CHANNELS 3 Xrotation Zrotation Yrotation
				JOINT head
				{
					OFFSET 0.000000 3.130431 0.000000 
					CHANNELS 3 Xrotation Zrotation Yrotation
					End Site
					{
						OFFSET 0.000000 3.130435 0.000000 
					}
				}
			}
			JOINT lCollar
			{
				OFFSET 3.470700 6.669187 -0.816635 
				CHANNELS 3 Yrotation Zrotation Xrotation
				JOINT lShldr
				{
					OFFSET 3.198488 0.000000 0.000000 
					CHANNELS 3 Zrotation Yrotation Xrotation
					JOINT lForeArm
					{
						OFFSET 10.139888 0.000000 0.000000 
						CHANNELS 3 Yrotation Zrotation Xrotation
						JOINT lHand
						{
							OFFSET 8.370511 0.000000 0.000000 
							CHANNELS 3 Zrotation Yrotation Xrotation
							End Site
							{
								OFFSET 4.083176 0.000000 0.000000 
							}
						}
					}
				}
			}
			JOINT rCollar
			{
				OFFSET -3.470700 6.669187 -0.816635 
				CHANNELS 3 Yrotation Zrotation Xrotation
				JOINT rShldr
				{
					OFFSET -3.198488 0.000000 0.000000 
					CHANNELS 3 Zrotation Yrotation Xrotation
					JOINT rForeArm
					{
						OFFSET -10.139888 0.000000 0.000000 
						CHANNELS 3 Yrotation Zrotation Xrotation
						JOINT rHand
						{
							OFFSET -8.370511 0.000000 0.000000 
							CHANNELS 3 Zrotation Yrotation Xrotation
							End Site
							{
								OFFSET -4.083176 0.000000 0.000000 
							}
						}
					}
				}
			}
		}
	}
	JOINT lThigh
	{
		OFFSET 5.308129 -1.633274 1.361059 
		CHANNELS 3 Xrotation Zrotation Yrotation
		JOINT lShin
		{
			OFFSET -2.041588 -20.007561 0.000000 
			CHANNELS 3 Xrotation Zrotation Yrotation
			JOINT lFoot
			{
				OFFSET 0.000000 -19.190928 -1.224953 
				CHANNELS 3 Xrotation Yrotation Zrotation
				End Site
				{
					OFFSET 0.000000 -2.449906 4.627600 
				}
			}
		}
	}
	JOINT rThigh
	{
		OFFSET -5.308129 -1.633274 1.361059 
		CHANNELS 3 Xrotation Zrotation Yrotation
		JOINT rShin
		{
			OFFSET 2.041588 -20.007561 0.000000 
			CHANNELS 3 Xrotation Zrotation Yrotation
			JOINT rFoot
			{
				OFFSET 0.000000 -19.190928 -1.224953 
				CHANNELS 3 Xrotation Yrotation Zrotation
				End Site
				{
					OFFSET 0.000000 -2.449906 4.627600 
				}
			}
		}
	}
}
MOTION
Frames: 14
Frame Time: 0.033333
0.019175 47.877525 -0.172874 -2.021484 -0.312500 -1.132866 16.991468 -8.712459 -6.345483 11.367188 14.677733 7.492708 33.974277 -0.880563 -0.597657 -25.986328 4.628906 -7.373047 2.000000 -2.000000 0.000000 -106.494141 -16.005859 32.917225 -7.535361 1.947339 17.106409 22.683226 0.199980 -2.742507 -2.000000 2.000000 0.000000 98.876953 14.697268 55.471230 28.430277 -1.462359 42.670948 2.616949 -45.814823 -63.165199 -7.406179 10.071190 -2.714839 22.381126 -8.120035 17.962788 -14.355878 0.615804 -1.680487 -10.043788 -8.774417 -3.510479 26.720217 4.069070 -10.560330 -15.070295 0.413053 -1.481943 
0.047479 47.865314 -0.227210 -1.972656 -0.224609 -1.191406 16.991468 -8.712459 -6.345483 11.591800 14.658204 7.834502 34.237831 -1.023617 -0.694537 -26.279299 4.785155 -7.636719 2.000000 -2.000000 0.000000 -106.269531 -16.308594 34.628906 -7.634375 1.869649 15.585200 22.461119 0.996096 -2.731253 -2.000000 2.000000 0.000000 99.130859 15.224611 55.712894 27.397535 -1.431936 42.330193 1.794971 -45.489712 -62.949318 -7.389730 10.289712 -2.734607 22.144852 -8.748119 18.049160 -14.297043 0.617968 -1.701279 -10.290521 -9.011296 -3.512947 26.898623 4.236098 -10.411848 -15.030701 0.388017 -1.506338 
0.054391 47.865013 -0.284293 -1.884766 -0.175781 -1.250030 16.991468 -8.712459 -6.345483 11.826174 14.687502 8.293491 34.276718 -1.211137 -0.824199 -26.582031 4.746094 -7.762864 2.000000 -2.000000 0.000000 -106.201172 -16.767580 34.616325 -7.383762 1.856214 16.447165 22.018896 1.172154 -2.716985 -2.000000 2.000000 0.000000 99.472656 15.634766 55.390625 26.556791 -1.446993 42.740341 1.337098 -45.449390 -62.843349 -7.308063 10.578000 -2.675712 21.692976 -9.375244 18.145350 -14.141119 0.609973 -1.672575 -10.458134 -9.188618 -3.526515 26.850613 4.451345 -10.270370 -14.894675 0.395890 -1.457942 
0.027911 47.874153 -0.343184 -1.767578 -0.146484 -1.347656 16.991468 -8.712459 -6.345483 12.080081 14.667970 8.713409 34.647774 -1.279296 -0.883026 -26.835938 4.443358 -7.714845 2.000000 -2.000000 0.000000 -105.888672 -17.343750 34.997089 -7.139738 1.905449 17.980001 21.520037 1.269073 -2.699236 -2.000000 2.000000 0.000000 99.814453 15.996095 55.302734 26.360617 -1.454381 42.700764 1.115493 -45.819958 -62.808132 -7.172769 10.970255 -2.653915 21.103771 -10.054947 18.402018 -13.955522 0.588502 -1.672889 -10.562193 -9.292767 -3.521935 26.664076 4.704862 -10.102821 -14.688875 0.387195 -1.506202 
-0.034780 47.888290 -0.401932 -1.660156 -0.195313 -1.552760 16.991468 -8.712459 -6.345483 12.363282 14.628908 9.113793 35.057991 -1.236291 -0.859900 -27.099611 3.964843 -7.490236 2.000000 -2.000000 0.000000 -104.394531 -17.773438 43.541939 -8.143453 1.709237 11.672934 21.434834 1.618938 -2.695146 -2.000000 2.000000 0.000000 100.283203 16.376953 55.478516 26.096653 -1.406525 42.233913 0.482547 -46.219143 -62.658012 -7.020616 11.483321 -2.689348 20.493790 -10.728743 18.757530 -13.731049 0.604419 -1.664452 -10.619861 -9.243097 -3.512722 26.311949 4.943630 -9.798089 -14.415696 0.413234 -1.502884 
-0.136273 47.904945 -0.458561 -1.552734 -0.312500 -1.894585 16.991468 -8.712459 -6.345483 12.646484 14.531251 9.338387 35.556389 -0.853057 -0.611695 -27.324221 3.369141 -7.246094 2.000000 -2.000000 0.000000 -103.232422 -18.291018 47.731316 -8.396330 1.637203 9.594337 20.995255 0.730806 -2.679076 -2.000000 2.000000 0.000000 101.035156 16.884766 56.096588 24.860054 -1.360267 41.473297 -1.072274 -46.100861 -62.264290 -6.840464 12.111496 -2.625488 19.979008 -11.380467 19.071211 -13.555182 0.610196 -1.672340 -10.679700 -9.039333 -3.508388 25.956490 5.097625 -9.348779 -14.073861 0.393283 -1.490982 
-0.262440 47.921745 -0.509157 -1.494141 -0.458984 -2.412109 16.991468 -8.712459 -6.345483 12.929688 14.355468 9.475077 35.908146 -0.409854 -0.293554 -27.519533 2.773437 -6.933595 2.000000 -2.000000 0.000000 -102.675781 -18.955080 49.062504 -8.065871 1.595278 10.173940 22.483433 -0.029052 -2.731235 -2.000000 2.000000 0.000000 101.503906 17.421877 56.933590 24.296192 -1.298681 40.625580 -2.087132 -46.326191 -62.014866 -6.607224 12.786665 -2.605576 19.480688 -12.033803 19.591354 -13.447534 0.583856 -1.686026 -10.770899 -8.749517 -3.487321 25.620495 5.174056 -8.797064 -13.760859 0.383113 -1.517719 
-0.404032 47.936203 -0.552560 -1.455078 -0.664063 -3.115234 16.991468 -8.712459 -6.345483 13.281251 14.150392 9.445746 35.986328 -0.033350 -0.024585 -27.705082 2.060547 -6.279297 2.000000 -2.000000 0.000000 -101.962891 -19.785158 54.068962 -8.461558 1.497530 7.353961 23.284269 0.789672 -2.756736 -2.000000 2.000000 0.000000 101.123047 18.300781 58.714001 25.061504 -1.155715 38.148781 -2.632868 -47.049706 -61.851524 -6.268151 13.543043 -2.577175 18.965347 -12.730312 20.228218 -13.330154 0.640290 -1.711278 -10.839696 -8.369082 -3.459292 25.300066 5.243246 -8.110524 -13.448457 0.389425 -1.513880 
-0.554927 47.948273 -0.578694 -1.425781 -0.859375 -4.003916 16.991468 -8.712459 -6.345483 13.593753 13.857422 9.230854 35.927727 0.166749 0.122923 -27.841797 1.210938 -4.960938 2.000000 -2.000000 0.000000 -101.425781 -20.820313 58.867188 -8.885457 1.472200 5.517158 22.015070 1.806983 -2.717727 -2.000000 2.000000 0.000000 101.220703 19.013672 58.294197 24.771786 -1.084118 37.154961 -3.858573 -46.691509 -61.549572 -5.806670 14.308969 -2.538743 18.385439 -13.397242 21.072681 -13.183525 0.605621 -1.718406 -10.920894 -7.924212 -3.432694 25.070169 5.280224 -7.266355 -13.155265 0.395205 -1.532234 
-0.708585 47.953415 -0.584367 -1.416016 -1.142578 -5.097851 16.991468 -8.712459 -6.345483 13.857422 13.554688 8.750000 35.478504 0.144516 0.106533 -27.988285 0.234375 -2.910156 2.000000 -2.000000 0.000000 -101.582031 -21.982420 61.158451 -8.627824 1.458088 6.241674 21.089373 1.846239 -2.685968 -2.000000 2.000000 0.000000 101.357422 19.550781 56.806641 24.695833 -1.092624 37.291401 -4.566946 -47.192120 -61.329178 -5.231004 15.197096 -2.553696 17.810091 -14.225671 22.161303 -13.163857 0.578744 -1.721385 -10.965697 -7.430943 -3.370749 24.828842 5.359483 -6.347794 -12.901606 0.409734 -1.524315 
-0.873633 47.954037 -0.575830 -1.328125 -1.474609 -6.396485 16.991468 -8.712459 -6.345483 13.984375 13.183595 7.922149 35.078121 0.087472 0.055903 -28.076174 -0.878906 -0.117188 2.000000 -2.000000 0.000000 -101.621094 -23.154297 63.765690 -8.409826 1.387745 5.894087 20.635805 -0.302038 -2.667632 -2.000000 2.000000 0.000000 100.507813 20.576170 58.007813 25.582397 -0.864377 33.655487 -6.238061 -48.528542 -60.718563 -4.606202 16.182550 -2.524443 17.195625 -15.115559 23.371952 -13.203118 0.597556 -1.711661 -11.068570 -6.832194 -3.341144 24.631729 5.378554 -5.203802 -12.725443 0.389629 -1.534346 
-1.041952 47.950619 -0.559333 -1.171875 -1.884766 -7.900392 16.991468 -8.712459 -6.345483 13.974612 12.802735 6.730679 34.775391 0.088933 0.065559 -28.144531 -2.148437 3.320312 2.000000 -2.000000 0.000000 -102.294922 -24.501955 63.652344 -7.821939 1.396675 8.250009 20.727137 2.913330 -2.677492 -2.000000 2.000000 0.000000 99.882813 21.181641 55.970325 26.969965 -0.815649 32.885452 -6.847258 -49.743317 -60.387615 -4.001755 17.327824 -2.491023 16.676243 -16.134914 24.758646 -13.290908 0.601335 -1.720654 -11.233620 -6.197174 -3.295788 24.469885 5.497298 -3.930726 -12.461634 0.383650 -1.536902 
-1.209469 47.942917 -0.529707 -0.976563 -2.353516 -9.687500 16.991468 -8.712459 -6.345483 13.876952 12.353516 5.224610 34.736309 0.231988 0.162436 -28.193361 -3.505859 7.226563 2.000000 -2.000000 0.000000 -103.232422 -26.484375 65.249550 -7.262247 1.424172 10.409742 17.152983 -0.277746 -2.530040 -2.000000 2.000000 0.000000 98.720703 22.050781 55.081791 28.829914 -0.663633 30.340994 -6.544415 -51.147694 -61.587639 -3.280318 18.601746 -2.449801 16.182652 -17.355352 26.431816 -13.564372 0.604204 -1.719295 -11.424477 -5.487750 -3.236617 24.295750 5.634428 -2.422072 -12.227545 0.382801 -1.515131 
-1.372030 47.935738 -0.481873 -0.712891 -2.929688 -11.796876 16.991468 -8.712459 -6.345483 13.671878 11.855470 3.498099 35.175770 0.187522 0.129657 -28.349609 -4.892578 11.601563 2.000000 -2.000000 0.000000 -103.867188 -28.437500 68.940659 -6.907392 1.457995 12.187839 15.645352 -1.854470 -2.462856 -2.000000 2.000000 0.000000 98.037109 22.812500 52.744137 29.650459 -0.583938 29.093456 -5.059567 -52.165062 -65.089951 -2.411005 19.996483 -2.411434 15.577698 -18.664080 28.466513 -13.867463 0.598732 -1.689344 -11.570804 -4.657583 -3.162887 24.050312 5.751374 -0.759114 -11.915007 0.406764 -1.535161 
